<svg class="donutimg" width="1920" height="1080" viewBox="0 0 1920 1080" fill="none" xmlns="http://www.w3.org/2000/svg">
<g>
<g id="XMLID_1272_">
<path id="XMLID_1273_" d="M746 561C823.32 561 886 498.32 886 421C886 343.68 823.32 281 746 281C668.68 281 606 343.68 606 421C606 498.32 668.68 561 746 561Z" fill="#FFAD41"/>
<path id="XMLID_1274_" d="M746 561C668.68 561 606 498.32 606 421C606 343.681 668.68 281 746 281" fill="#FF9811"/>
<path id="XMLID_1275_" d="M877 421C877 454.137 844.79 476.358 823.074 498.074C801.358 519.79 779.137 552 746 552C712.863 552 690.642 519.79 668.926 498.074C647.21 476.358 615 454.137 615 421C615 387.863 647.21 365.642 668.926 343.926C690.642 322.21 712.863 290 746 290C779.137 290 801.358 322.21 823.074 343.926C844.79 365.642 877 387.863 877 421Z" fill="#804C09"/>
<path id="XMLID_1276_" d="M746 290C712.863 290 690.642 322.21 668.926 343.926C647.21 365.642 615 387.863 615 421C615 454.137 647.21 476.358 668.926 498.074C690.642 519.79 712.863 552 746 552C746 510 746 349 746 290Z" fill="#402604"/>
<path id="XMLID_1277_" d="M746 461C768.091 461 786 443.091 786 421C786 398.909 768.091 381 746 381C723.909 381 706 398.909 706 421C706 443.091 723.909 461 746 461Z" fill="white"/>
<path id="XMLID_1278_" d="M656 431C661.523 431 666 426.523 666 421C666 415.477 661.523 411 656 411C650.477 411 646 415.477 646 421C646 426.523 650.477 431 656 431Z" fill="#64C37D"/>
<path id="XMLID_1279_" d="M836 431C841.523 431 846 426.523 846 421C846 415.477 841.523 411 836 411C830.477 411 826 415.477 826 421C826 426.523 830.477 431 836 431Z" fill="#FF5023"/>
<path id="XMLID_1280_" d="M746 341C751.523 341 756 336.523 756 331C756 325.477 751.523 321 746 321C740.477 321 736 325.477 736 331C736 336.523 740.477 341 746 341Z" fill="#FF9811"/>
<path id="XMLID_1281_" d="M746 521C751.523 521 756 516.523 756 511C756 505.477 751.523 501 746 501C740.477 501 736 505.477 736 511C736 516.523 740.477 521 746 521Z" fill="#FFDA44"/>
<path id="XMLID_18_" d="M686 491.001C691.523 491.001 696 486.524 696 481.001C696 475.478 691.523 471.001 686 471.001C680.477 471.001 676 475.478 676 481.001C676 486.524 680.477 491.001 686 491.001Z" fill="#FF5023"/>
<path id="XMLID_17_" d="M806 371C811.523 371 816 366.523 816 361C816 355.477 811.523 351 806 351C800.477 351 796 355.477 796 361C796 366.523 800.477 371 806 371Z" fill="#64C37D"/>
<path id="XMLID_16_" d="M686 371C691.523 371 696 366.523 696 361C696 355.477 691.523 351 686 351C680.477 351 676 355.477 676 361C676 366.523 680.477 371 686 371Z" fill="#FFDA44"/>
<path id="XMLID_15_" d="M806 491.001C811.523 491.001 816 486.524 816 481.001C816 475.478 811.523 471.001 806 471.001C800.477 471.001 796 475.478 796 481.001C796 486.524 800.477 491.001 806 491.001Z" fill="#FF9811"/>
</g>
</g>
</svg>
